HIERARCHY
ROOT Hips
{
	OFFSET 181.407898 92.019173 39.530121
	CHANNELS 6 Xposition Yposition Zposition Zrotation Yrotation Xrotation 
	JOINT LeftUpLeg
	{
		OFFSET 0.103458 1.857830 10.548511
		CHANNELS 3 Zrotation Yrotation Xrotation
		JOINT LeftLeg
		{
			OFFSET 43.500000 -0.000034 0.000002
			CHANNELS 3 Zrotation Yrotation Xrotation
			JOINT LeftFoot
			{
				OFFSET 42.372192 0.000015 -0.000005
				CHANNELS 3 Zrotation Yrotation Xrotation
				JOINT LeftToe
				{
					OFFSET 17.299999 -0.000002 0.000006
					CHANNELS 3 Zrotation Yrotation Xrotation
					End Site
					{
						OFFSET 0.000000 0.000000 0.000000
					}
				}
			}
		}
	}
	JOINT RightUpLeg
	{
		OFFSET 0.103456 1.857828 -10.548506
		CHANNELS 3 Zrotation Yrotation Xrotation
		JOINT RightLeg
		{
			OFFSET 43.500038 -0.000023 0.000004
			CHANNELS 3 Zrotation Yrotation Xrotation
			JOINT RightFoot
			{
				OFFSET 42.372265 -0.000004 0.000015
				CHANNELS 3 Zrotation Yrotation Xrotation
				JOINT RightToe
				{
					OFFSET 17.299994 -0.000005 -0.000004
					CHANNELS 3 Zrotation Yrotation Xrotation
					End Site
					{
						OFFSET 0.000000 0.000000 0.000000
					}
				}
			}
		}
	}
	JOINT Spine
	{
		OFFSET 6.901968 -2.603730 -0.000005
		CHANNELS 3 Zrotation Yrotation Xrotation
		JOINT Spine1
		{
			OFFSET 12.588101 -0.000001 0.000008
			CHANNELS 3 Zrotation Yrotation Xrotation
			JOINT Spine2
			{
				OFFSET 12.343199 -0.000002 0.000004
				CHANNELS 3 Zrotation Yrotation Xrotation
				JOINT Neck
				{
					OFFSET 25.832901 -0.000004 -0.000011
					CHANNELS 3 Zrotation Yrotation Xrotation
					JOINT Head
					{
						OFFSET 11.766607 0.000005 0.000000
						CHANNELS 3 Zrotation Yrotation Xrotation
						End Site
						{
							OFFSET 0.000000 0.000000 0.000000
						}
					}
				}
				JOINT LeftShoulder
				{
					OFFSET 19.745911 -1.480373 6.000101
					CHANNELS 3 Zrotation Yrotation Xrotation
					JOINT LeftArm
					{
						OFFSET 11.284123 -0.000010 -0.000027
						CHANNELS 3 Zrotation Yrotation Xrotation
						JOINT LeftForeArm
						{
							OFFSET 33.000042 0.000003 0.000027
							CHANNELS 3 Zrotation Yrotation Xrotation
							JOINT LeftHand
							{
								OFFSET 25.200010 0.000018 0.000014
								CHANNELS 3 Zrotation Yrotation Xrotation
								End Site
								{
									OFFSET 0.000000 0.000000 0.000000
								}
							}
						}
					}
				}
				JOINT RightShoulder
				{
					OFFSET 19.746101 -1.480375 -6.000073
					CHANNELS 3 Zrotation Yrotation Xrotation
					JOINT RightArm
					{
						OFFSET 11.284151 -0.000017 -0.000003
						CHANNELS 3 Zrotation Yrotation Xrotation
						JOINT RightForeArm
						{
							OFFSET 33.000095 0.000018 0.000001
							CHANNELS 3 Zrotation Yrotation Xrotation
							JOINT RightHand
							{
								OFFSET 25.199774 0.000135 0.000424
								CHANNELS 3 Zrotation Yrotation Xrotation
								End Site
								{
									OFFSET 0.000000 0.000000 0.000000
								}
							}
						}
					}
				}
			}
		}
	}
}
MOTION
Frames: 12
Frame Time: 0.033333
181.407898 92.019173 39.530121 88.554967 6.196986 84.776950 -174.342532 -5.574093 168.846333 -16.319801 -2.407335 -4.302423 85.594879 2.291826 -4.079834 21.454551 0.003083 -0.000001 -176.080911 2.299895 179.522780 -19.031460 3.162429 12.679418 84.193044 -7.625950 6.842217 21.454562 -0.003109 -0.000017 6.957709 0.339039 0.016512 3.902763 0.702853 0.044717 3.584641 0.703244 0.040481 6.344156 -2.180197 -4.871587 -9.333335 4.983600 -6.893368 -81.351337 -82.316654 -101.122979 -8.654205 2.093596 -10.359886 -16.969431 -16.101838 1.103465 14.498482 15.802350 -6.446681 46.657729 85.301468 -131.824522 0.699254 -7.648476 20.599989 -27.081133 21.294804 -1.600952 17.678821 -18.211692 -17.341338 
181.406006 92.020897 39.522381 88.558088 6.193514 84.784887 -174.342518 -5.574089 168.859447 -16.295943 -2.414887 -4.302415 85.581464 2.291834 -4.074927 21.454550 0.003081 -0.000003 -176.085869 2.299902 179.525566 -19.026037 3.162442 12.682652 84.188898 -7.628617 6.839497 21.454557 -0.003111 -0.000017 6.956364 0.339038 0.014811 3.900081 0.701705 0.041319 3.581951 0.702076 0.037083 6.340168 -2.178941 -4.871588 -9.333337 4.979829 -6.892508 -81.351733 -82.311730 -101.123041 -8.656783 2.093596 -10.367534 -16.968254 -16.101838 1.103469 14.498477 15.797271 -6.439781 46.657593 85.302349 -131.824727 0.698224 -7.651754 20.603996 -27.078078 21.294798 -1.600946 17.687781 -18.211690 -17.356945 
181.395706 92.030167 39.480339 88.575341 6.173337 84.837896 -174.344841 -5.574093 168.931561 -16.179694 -2.446515 -4.302428 85.510779 2.291823 -4.052729 21.454553 0.003089 -0.000001 -176.113190 2.299901 179.552887 -18.997792 3.162428 12.698075 84.167547 -7.641296 6.826646 21.454557 -0.003115 -0.000017 6.948666 0.339037 0.004343 3.884605 0.693477 0.020200 3.566495 0.693734 0.016016 6.315917 -2.143914 -4.876010 -9.338506 4.939615 -6.878000 -81.296873 -82.276985 -101.181616 -8.680253 2.093593 -10.413110 -16.956795 -16.101840 1.103458 14.508123 15.763609 -6.384463 46.659905 85.322026 -131.821708 0.685406 -7.663563 20.618417 -27.046176 21.294798 -1.600940 17.721901 -18.211171 -17.385994 
181.384796 92.037628 39.443081 88.590108 6.155899 84.904511 -174.361137 -5.577705 169.005668 -16.098822 -2.466394 -4.302417 85.453453 2.291819 -4.037546 21.454551 0.003090 0.000001 -176.134391 2.297102 179.601013 -18.974122 3.162428 12.708551 84.151312 -7.649902 6.817801 21.454558 -0.003104 -0.000016 6.941669 0.339037 -0.005090 3.870584 0.684164 0.001143 3.552453 0.684295 -0.002997 6.268480 -2.079183 -4.893555 -9.313217 4.878505 -6.862564 -81.166573 -82.241413 -101.315946 -8.720641 2.093596 -10.458243 -16.940027 -16.101843 1.103459 14.514850 15.725443 -6.358691 46.380075 85.378608 -132.097225 0.646286 -7.671256 20.621697 -26.995911 21.303469 -1.600946 17.713530 -18.234790 -17.349358 
181.373001 92.041260 39.412861 88.590497 6.143779 84.945936 -174.386259 -5.595701 169.054927 -16.070530 -2.479214 -4.299619 85.425832 2.290291 -4.033107 21.454550 0.003091 -0.000001 -176.154486 2.279493 179.630355 -18.963117 3.155798 12.715760 84.140745 -7.655408 6.813283 21.454560 -0.003108 -0.000016 6.935312 0.339042 -0.009016 3.857796 0.678154 -0.008287 3.539684 0.678237 -0.012380 6.210575 -2.033439 -4.904370 -9.263705 4.845809 -6.851452 -81.062529 -82.190480 -101.425468 -8.772686 2.086271 -10.489517 -16.924618 -16.101836 1.103459 14.516288 15.672943 -6.387109 46.105607 85.433871 -132.367482 0.607042 -7.677609 20.619088 -26.947816 21.315091 -1.600947 17.694546 -18.265840 -17.288872 
181.362106 92.041847 39.388199 88.582062 6.140775 84.967553 -174.411271 -5.621210 169.060487 -16.079013 -2.481130 -4.280258 85.419070 2.276414 -4.034977 21.454553 0.003077 -0.000001 -176.170455 2.255591 179.643865 -18.964816 3.147094 12.720629 84.135650 -7.658609 6.812844 21.454560 -0.003113 -0.000018 6.929232 0.337040 -0.011851 3.845655 0.674189 -0.010610 3.527530 0.674256 -0.014693 6.167026 -2.013755 -4.904339 -9.212593 4.842083 -6.843317 -80.979180 -82.146248 -101.513680 -8.815312 2.073359 -10.504245 -16.915319 -16.101838 1.103462 14.529972 15.594350 -6.446166 45.908389 85.475371 -132.561555 0.578201 -7.683770 20.612191 -26.913831 21.321171 -1.600952 17.677510 -18.292319 -17.238344 
181.352402 92.041603 39.370880 88.570703 6.156449 84.973912 -174.406708 -5.644394 169.037538 -16.080932 -2.479533 -4.256851 85.411468 2.258238 -4.044349 21.454555 0.003104 0.000001 -176.165332 2.233500 179.639344 -18.966880 3.141826 12.727214 84.132761 -7.664231 6.811830 21.454560 -0.003107 -0.000018 6.924766 0.334948 -0.013086 3.836730 0.671055 -0.007716 3.518608 0.671122 -0.011763 6.157048 -2.004307 -4.906176 -9.183726 4.841612 -6.842070 -80.886454 -82.122739 -101.609193 -8.834991 2.061398 -10.506503 -16.917460 -16.101836 1.103477 14.556941 15.470672 -6.486383 45.760990 85.500854 -132.706846 0.550087 -7.689879 20.658056 -26.889183 21.297331 -1.600951 17.665767 -18.299728 -17.272869 
181.345703 92.041840 39.357529 88.567691 6.176191 84.969691 -174.388786 -5.649006 169.073096 -16.066326 -2.488002 -4.276477 85.406154 2.274124 -4.033475 21.454553 0.003087 -0.000003 -176.159472 2.223799 179.620779 -18.975973 3.140000 12.735046 84.132235 -7.668937 6.810245 21.454558 -0.003105 -0.000015 6.918540 0.332809 -0.013740 3.824304 0.665876 -0.001388 3.506176 0.665987 -0.005416 6.168912 -1.997041 -4.913646 -9.171208 4.843701 -6.847178 -80.811936 -82.120198 -101.684120 -8.833834 2.051550 -10.507546 -16.933338 -16.101840 1.103470 14.587961 15.324101 -6.519123 45.524604 85.516769 -132.940712 0.510402 -7.713193 20.662869 -26.873280 21.302236 -1.600941 17.670331 -18.299322 -17.304499 
181.343201 92.041206 39.350380 88.568251 6.200000 84.954938 -174.356998 -5.644903 169.095075 -16.043689 -2.493863 -4.296395 85.401728 2.289395 -4.026526 21.454553 0.003096 -0.000000 -176.150565 2.224302 179.606900 -18.991928 3.139522 12.733304 84.136633 -7.668487 6.808490 21.454560 -0.003105 -0.000017 6.910906 0.330788 -0.013904 3.809054 0.660760 0.008191 3.490917 0.660925 0.004198 6.183584 -2.005862 -4.920200 -9.161270 4.850185 -6.857049 -80.836832 -82.125778 -101.658589 -8.830666 2.043947 -10.514792 -16.958161 -16.107381 1.103463 14.630911 15.221270 -6.586576 45.188156 85.517602 -133.274722 0.469957 -7.749549 20.667656 -26.886582 21.307204 -1.600950 17.712140 -18.264356 -17.340298 
181.343002 92.039307 39.350712 88.570854 6.231134 84.938306 -174.308764 -5.637403 169.095840 -16.015301 -2.497488 -4.306955 85.399829 2.297828 -4.021417 21.454548 0.003093 -0.000004 -176.131072 2.231097 179.617678 -19.011606 3.140462 12.716526 84.145622 -7.658205 6.806941 21.454563 -0.003103 -0.000016 6.903241 0.329067 -0.013674 3.793753 0.657813 0.015916 3.475622 0.658173 0.011930 6.192506 -2.024783 -4.922986 -9.150592 4.860880 -6.866548 -80.921759 -82.147273 -101.571115 -8.804255 2.044183 -10.528866 -16.992100 -16.127569 1.103471 14.678157 15.153441 -6.620077 45.216023 85.480439 -133.248330 0.486968 -7.786995 20.682077 -26.923004 21.312053 -1.600949 17.706132 -18.190788 -17.353648 
181.342896 92.036179 39.349449 88.573900 6.266924 84.935964 -174.262291 -5.628792 169.096564 -15.993036 -2.500351 -4.310321 85.399624 2.301386 -4.015265 21.454550 0.003096 0.000001 -176.112015 2.238804 179.624590 -19.042238 3.142835 12.711435 84.158360 -7.656171 6.805994 21.454557 -0.003101 -0.000016 6.898089 0.327701 -0.013128 3.783422 0.654975 0.014307 3.465288 0.655183 0.010362 6.181306 -2.053712 -4.928477 -9.143759 4.888445 -6.886220 -81.050652 -82.165612 -101.439961 -8.773218 2.049137 -10.553811 -17.025642 -16.151738 1.103462 14.726769 15.105219 -6.629398 45.358890 85.439622 -133.107915 0.510495 -7.825069 20.735669 -26.983014 21.322360 -1.600953 17.687630 -18.121349 -17.420071 
181.342300 92.031319 39.342831 88.575860 6.304205 84.951079 -174.228741 -5.620000 169.104501 -15.987055 -2.503243 -4.308424 85.401871 2.301509 -4.007834 21.454551 0.003104 0.000001 -176.104653 2.240919 179.597666 -19.094120 3.148774 12.739240 84.177198 -7.676018 6.806070 21.454557 -0.003111 -0.000018 6.896427 0.326551 -0.011529 3.778999 0.650265 0.005324 3.460897 0.650519 0.001401 6.161491 -2.048567 -4.933385 -9.162063 4.901927 -6.895113 -81.136097 -82.176246 -101.353088 -8.749689 2.059640 -10.578935 -17.049050 -16.170148 1.103470 14.766008 15.069451 -6.601488 45.465137 85.410252 -133.003632 0.525110 -7.867591 20.803832 -27.051980 21.336176 -1.600957 17.708006 -18.062739 -17.509308 
